#Comment line ignore any data following # character 
#Hierarchical Translation and Rotation (.htr) file 
[Header]	
#Header keywords are followed by a single value 
FileType HTR		#Single word string
DataType HTRS		#Translation followed by rotation and scale data
FileVersion 1		#integer
NumSegments 25		#integer
NumFrames 4		#integer
DataFrameRate 30		#integer, data frame rate in this file
EulerRotationOrder ZYX
CalibrationUnits mm
RotationUnits Degrees
GlobalAxisofGravity Y
BoneLengthAxis Y
ScaleFactor 1.00
[SegmentNames&Hierarchy]
#CHILD	PARENT
BN_Tick_Root GLOBAL
BN_Torso BN_Tick_Root
BN_L_Leg_Front01 BN_Torso
BN_L_Leg_Rear01 BN_Torso
BN_MetalTop BN_Torso
BN_Neck BN_Torso
BN_R_Leg_Front01 BN_Torso
BN_R_Leg_Rear01 BN_Torso
BN_Sack BN_Torso
BN_L_Leg_Front02 BN_L_Leg_Front01
BN_L_Leg_Front03 BN_L_Leg_Front02
BN_L_Leg_Rear02 BN_L_Leg_Rear01
BN_L_Leg_Rear03 BN_L_Leg_Rear02
BN_Head BN_Neck
BN_Needle BN_Head
BN_R_Leg_Front02 BN_R_Leg_Front01
BN_R_Leg_Front03 BN_R_Leg_Front02
BN_R_Leg_Rear02 BN_R_Leg_Rear01
BN_R_Leg_Rear03 BN_R_Leg_Rear02
BN_SackDef01 BN_Sack
BN_SackDef02 BN_Sack
BN_SackDef03 BN_Sack
BN_SackDef04 BN_Sack
BN_SackDef05 BN_Sack
BN_SackDef06 BN_Sack
[BasePosition]
#SegmentName Tx, Ty, Tz, Rx, Ry, Rz, BoneLength
BN_Tick_Root 0.000000 0.000000 0.000000 -90.000000 0.000000 0.000000 10.000000 
BN_Torso 0.000000 0.000000 0.000000 0.000000 0.000000 0.000000 10.000000 
BN_L_Leg_Front01 0.000000 0.000000 0.000000 0.000000 0.000000 0.000000 10.000000 
BN_L_Leg_Rear01 0.000000 0.000000 0.000000 0.000000 0.000000 0.000000 10.000000 
BN_MetalTop 0.000000 0.000000 0.000000 0.000000 0.000000 0.000000 10.000000 
BN_Neck 0.000000 0.000000 0.000000 0.000000 0.000000 0.000000 10.000000 
BN_R_Leg_Front01 0.000000 0.000000 0.000000 0.000000 0.000000 0.000000 10.000000 
BN_R_Leg_Rear01 0.000000 0.000000 0.000000 0.000000 0.000000 0.000000 10.000000 
BN_Sack 0.000000 0.000000 0.000000 0.000000 0.000000 0.000000 10.000000 
BN_L_Leg_Front02 0.000000 0.000000 0.000000 0.000000 0.000000 0.000000 10.000000 
BN_L_Leg_Front03 0.000000 0.000000 0.000000 0.000000 0.000000 0.000000 10.000000 
BN_L_Leg_Rear02 0.000000 0.000000 0.000000 0.000000 0.000000 0.000000 10.000000 
BN_L_Leg_Rear03 0.000000 0.000000 0.000000 0.000000 0.000000 0.000000 10.000000 
BN_Head 0.000000 0.000000 0.000000 0.000000 0.000000 0.000000 10.000000 
BN_Needle 0.000000 0.000000 0.000000 0.000000 0.000000 0.000000 10.000000 
BN_R_Leg_Front02 0.000000 0.000000 0.000000 0.000000 0.000000 0.000000 10.000000 
BN_R_Leg_Front03 0.000000 0.000000 0.000000 0.000000 0.000000 0.000000 10.000000 
BN_R_Leg_Rear02 0.000000 0.000000 0.000000 0.000000 0.000000 0.000000 10.000000 
BN_R_Leg_Rear03 0.000000 0.000000 0.000000 0.000000 0.000000 0.000000 10.000000 
BN_SackDef01 0.000000 0.000000 0.000000 0.000000 0.000000 0.000000 10.000000 
BN_SackDef02 0.000000 0.000000 0.000000 0.000000 0.000000 0.000000 10.000000 
BN_SackDef03 0.000000 0.000000 0.000000 0.000000 0.000000 0.000000 10.000000 
BN_SackDef04 0.000000 0.000000 0.000000 0.000000 0.000000 0.000000 10.000000 
BN_SackDef05 0.000000 0.000000 0.000000 0.000000 0.000000 0.000000 10.000000 
BN_SackDef06 0.000000 0.000000 0.000000 0.000000 0.000000 0.000000 10.000000 
#Beginning of Data. Separated by tabs
#Fr	Tx	Ty	Tz	Rx	Ry	Rz	SF
[BN_Tick_Root]
204 -199.120758 484.985413 -0.000200 0.000000 0.000000 -7.242565 524.270874
205 -199.120758 502.328583 -0.000200 0.000000 0.000000 -7.242565 540.354553
206 -199.120728 516.699463 -0.000200 0.000000 0.000000 -7.242565 553.739441
207 -199.120728 528.376709 -0.000200 0.000000 0.000000 -7.242567 564.651245
[BN_Torso]
204 -16.169371 -23.055731 213.800110 0.001468 0.001832 -12.573723 215.646698
205 -13.982956 -40.260426 213.800110 0.001468 0.001831 -12.549841 218.006668
206 -12.171237 -54.516727 213.800110 0.001469 0.001831 -12.525962 220.976700
207 -10.699119 -66.100685 213.800110 0.001469 0.001831 -12.525962 224.040756
[BN_L_Leg_Front01]
204 -68.477791 10.734189 -26.804373 -51.678917 44.423985 147.633804 74.316254
205 -68.477791 10.734189 -26.804373 -51.678925 44.423992 147.633820 74.316254
206 -68.477791 10.734189 -26.804373 -51.678917 44.423985 147.633804 74.316254
207 -68.477791 10.734189 -26.804373 -51.679314 44.422710 147.633362 74.316254
[BN_L_Leg_Rear01]
204 -72.133743 -73.994843 -18.268616 64.308807 46.299637 -134.404846 104.939293
205 -72.133743 -73.994843 -18.268616 64.308769 46.299618 -134.404831 104.939293
206 -72.133743 -73.994843 -18.268616 64.308784 46.299629 -134.404846 104.939293
207 -72.133743 -73.994843 -18.268616 64.308784 46.299629 -134.404846 104.939293
[BN_MetalTop]
204 0.000008 13.737477 26.403606 97.840111 -25.028355 -92.576508 29.763546
205 0.000008 13.737477 26.403606 93.777878 -18.985126 -91.233635 29.763546
206 0.000008 13.737477 26.403606 90.001328 -12.931402 -90.002434 29.763546
207 0.000008 13.737477 26.403606 101.862419 -21.849247 -94.536011 29.763546
[BN_Neck]
204 0.000014 95.233284 10.002091 -73.094925 -72.530586 76.596817 95.757088
205 0.000014 95.233284 10.002091 -74.740913 -72.767052 77.127197 95.757088
206 0.000014 95.233284 10.002091 -76.153664 -72.963165 77.602264 95.757088
207 0.000014 95.233284 10.002091 -76.757393 -73.049232 77.816971 95.757088
[BN_R_Leg_Front01]
204 68.477768 10.734107 -26.804314 49.714863 50.387585 46.495514 74.316193
205 68.477768 10.734107 -26.804314 49.714863 50.387585 46.495514 74.316193
206 68.477768 10.734107 -26.804314 49.714863 50.387585 46.495514 74.316193
207 68.477768 10.734107 -26.804314 49.714863 50.387585 46.495514 74.316193
[BN_R_Leg_Rear01]
204 72.133751 -73.994873 -18.268644 -64.200394 46.836735 -52.359207 104.939331
205 72.133751 -73.994873 -18.268644 -64.200401 46.836735 -52.359215 104.939331
206 72.133751 -73.994873 -18.268644 -64.200401 46.836735 -52.359215 104.939331
207 72.133751 -73.994873 -18.268644 -64.200401 46.836735 -52.359215 104.939331
[BN_Sack]
204 -0.000000 -78.024918 33.657791 90.001671 -1.018476 -90.001137 84.974907
205 -0.000000 -78.024918 33.657791 90.002136 -1.332666 -90.000534 84.974907
206 -0.000000 -78.024918 33.657791 90.001434 -1.757359 -89.999847 84.974907
207 -0.000000 -78.024918 33.657791 90.000717 -2.182047 -89.999123 84.974907
[BN_L_Leg_Front02]
204 142.805023 -0.000015 -0.000104 0.202951 0.148983 -78.563065 142.805023
205 142.805023 -0.000015 -0.000104 0.202314 0.148461 -78.563080 142.805023
206 142.805023 -0.000015 -0.000104 0.201676 0.147940 -78.563080 142.805023
207 142.805023 -0.000015 -0.000104 0.200224 0.146313 -78.564804 142.805023
[BN_L_Leg_Front03]
204 124.143021 -0.000045 0.000007 0.353981 -0.446464 82.514931 124.143021
205 124.143021 -0.000045 0.000007 0.353981 -0.446464 82.514931 124.143021
206 124.143021 -0.000045 0.000007 0.353981 -0.446464 82.514931 124.143021
207 124.143021 -0.000045 0.000007 0.353980 -0.446464 82.517166 124.143021
[BN_L_Leg_Rear02]
204 139.939041 0.000075 -0.000022 0.120729 -0.202377 82.515076 139.939041
205 139.939041 0.000075 -0.000022 0.120729 -0.202377 82.515076 139.939041
206 139.939041 0.000075 -0.000022 0.120729 -0.202377 82.515068 139.939041
207 139.939041 0.000075 -0.000022 0.120729 -0.202377 82.515068 139.939041
[BN_L_Leg_Rear03]
204 142.839615 0.000179 -0.000060 0.000171 -0.002341 -98.335243 142.839615
205 142.839615 0.000179 -0.000060 0.000171 -0.002341 -98.335243 142.839615
206 142.839615 0.000179 -0.000060 0.000171 -0.002341 -98.335243 142.839615
207 142.839615 0.000179 -0.000060 0.000171 -0.002341 -98.335243 142.839615
[BN_Head]
204 57.062447 -0.000030 0.000000 4.185520 4.001391 -6.987484 57.062447
205 57.062447 -0.000030 0.000000 3.142690 3.815482 -6.748865 57.062447
206 57.062447 -0.000030 0.000000 2.265581 3.659575 -6.546655 57.062447
207 57.062447 -0.000030 0.000000 1.900174 3.592359 -6.464779 57.062447
[BN_Needle]
204 33.915257 69.677597 0.000049 0.000003 0.000030 87.896805 77.493309
205 33.915257 69.677589 0.000049 0.000003 0.000030 87.896805 77.493301
206 33.915257 69.677589 0.000050 0.000003 0.000030 87.896805 77.493301
207 33.915257 69.677589 0.000050 0.000003 0.000030 87.896805 77.493301
[BN_R_Leg_Front02]
204 142.804947 -0.000060 0.000060 -0.159030 0.398844 102.589508 142.804947
205 142.804947 -0.000060 0.000060 -0.159417 0.399326 102.589508 142.804947
206 142.804947 -0.000060 0.000060 -0.159803 0.399808 102.589500 142.804947
207 142.804947 -0.000060 0.000060 -0.160190 0.400291 102.589500 142.804947
[BN_R_Leg_Front03]
204 124.143005 -0.000060 -0.000156 -0.355213 -0.418244 -111.387238 124.143005
205 124.143005 -0.000060 -0.000156 -0.355213 -0.418244 -111.387238 124.143005
206 124.143005 -0.000060 -0.000156 -0.355213 -0.418244 -111.387238 124.143005
207 124.143005 -0.000060 -0.000156 -0.355213 -0.418244 -111.387238 124.143005
[BN_R_Leg_Rear02]
204 139.939011 -0.000149 0.000015 -0.118718 -0.214845 -84.312561 139.939011
205 139.939011 -0.000149 0.000015 -0.119815 -0.216793 -84.312561 139.939011
206 139.939011 -0.000149 0.000015 -0.120912 -0.218740 -84.312576 139.939011
207 139.939011 -0.000149 0.000015 -0.122009 -0.220688 -84.312569 139.939011
[BN_R_Leg_Rear03]
204 142.839417 0.000075 0.000119 0.002337 -0.000218 100.676567 142.839417
205 142.839417 0.000075 0.000119 0.002337 -0.000218 100.676567 142.839417
206 142.839417 0.000075 0.000119 0.002337 -0.000218 100.676567 142.839417
207 142.839417 0.000075 0.000119 0.002337 -0.000218 100.676567 142.839417
[BN_SackDef01]
204 249.782272 -3.760844 42.949425 -128.408218 -44.374973 -11.740845 253.475800
205 249.782272 -3.760844 42.949425 -128.408218 -44.374973 -11.740845 253.475800
206 249.782272 -3.760844 42.949425 -128.408218 -44.374973 -11.740845 253.475800
207 249.782272 -3.760844 42.949425 -128.408218 -44.374973 -11.740845 253.475800
[BN_SackDef02]
204 138.789795 -62.131748 45.674385 32.077126 -27.375721 -88.781525 158.773758
205 138.789795 -62.131748 45.674385 32.077126 -27.375721 -88.781525 158.773758
206 138.789795 -62.131748 45.674385 32.077126 -27.375721 -88.781525 158.773758
207 138.789795 -62.131748 45.674385 32.077126 -27.375721 -88.781525 158.773758
[BN_SackDef03]
204 249.782272 -3.760785 -42.949661 18.144459 44.375008 -11.740894 253.475845
205 249.782272 -3.760785 -42.949661 18.144459 44.375008 -11.740894 253.475845
206 249.782272 -3.760785 -42.949661 18.144459 44.375008 -11.740894 253.475845
207 249.782272 -3.760785 -42.949661 18.144459 44.375008 -11.740894 253.475845
[BN_SackDef04]
204 138.789780 -62.131645 -45.674473 146.059982 27.375723 -88.781555 158.773743
205 138.789780 -62.131645 -45.674473 146.059982 27.375723 -88.781555 158.773743
206 138.789780 -62.131645 -45.674473 146.059982 27.375723 -88.781555 158.773743
207 138.789780 -62.131645 -45.674473 146.059982 27.375723 -88.781555 158.773743
[BN_SackDef05]
204 118.790161 46.167137 -63.831196 0.155741 51.314110 90.605110 142.537460
205 118.790161 46.167137 -63.831196 0.155741 51.314110 90.605110 142.537460
206 118.790161 46.167137 -63.831196 0.155741 51.314110 90.605110 142.537460
207 118.790161 46.167137 -63.831196 0.155741 51.314110 90.605110 142.537460
[BN_SackDef06]
204 118.790207 46.167194 63.831219 152.058487 -51.314072 90.605019 142.537537
205 118.790207 46.167194 63.831219 152.058487 -51.314072 90.605019 142.537537
206 118.790207 46.167194 63.831219 152.058487 -51.314072 90.605019 142.537537
207 118.790207 46.167194 63.831219 152.058487 -51.314072 90.605019 142.537537
